<mxfile host="app.diagrams.net" modified="2023-07-19T09:05:10.152Z" agent="Mozilla/5.0 (Windows NT 10.0; Win64; x64) AppleWebKit/537.36 (KHTML, like Gecko) Chrome/114.0.0.0 Safari/537.36 Edg/114.0.1823.82" etag="ywY0eAyR6Ae6UPJgXVbE" version="21.6.3" type="github">
  <diagram name="Page-1" id="b520641d-4fe3-3701-9064-5fc419738815">
    <mxGraphModel dx="794" dy="462" grid="1" gridSize="10" guides="1" tooltips="1" connect="1" arrows="1" fold="1" page="1" pageScale="1" pageWidth="1100" pageHeight="850" background="none" math="0" shadow="0">
      <root>
        <mxCell id="0" />
        <mxCell id="1" parent="0" />
        <mxCell id="AY7pOuqon0SZaMtRQyjH-1" value="Dataset" style="swimlane;startSize=10;" vertex="1" parent="1">
          <mxGeometry x="40" y="40" width="690" height="410" as="geometry" />
        </mxCell>
        <mxCell id="AY7pOuqon0SZaMtRQyjH-2" value="Advertising Text Generation&lt;br&gt;" style="text;html=1;align=center;verticalAlign=middle;resizable=0;points=[];autosize=1;strokeColor=none;fillColor=none;" vertex="1" parent="AY7pOuqon0SZaMtRQyjH-1">
          <mxGeometry x="15" y="18" width="170" height="30" as="geometry" />
        </mxCell>
        <mxCell id="AY7pOuqon0SZaMtRQyjH-5" value="{&quot;content&quot;: **** ,&quot;summary&quot;:****}" style="text;html=1;align=center;verticalAlign=middle;resizable=0;points=[];autosize=1;strokeColor=none;fillColor=none;" vertex="1" parent="AY7pOuqon0SZaMtRQyjH-1">
          <mxGeometry x="5" y="48" width="190" height="30" as="geometry" />
        </mxCell>
        <mxCell id="AY7pOuqon0SZaMtRQyjH-35" value="" style="rounded=0;whiteSpace=wrap;html=1;" vertex="1" parent="AY7pOuqon0SZaMtRQyjH-1">
          <mxGeometry x="-20" y="-30" width="710" height="440" as="geometry" />
        </mxCell>
        <mxCell id="AY7pOuqon0SZaMtRQyjH-36" value="FATE server" style="text;html=1;strokeColor=none;fillColor=none;align=center;verticalAlign=middle;whiteSpace=wrap;rounded=0;" vertex="1" parent="AY7pOuqon0SZaMtRQyjH-1">
          <mxGeometry x="292.5" y="355" width="105" height="30" as="geometry" />
        </mxCell>
        <mxCell id="AY7pOuqon0SZaMtRQyjH-4" value="Advertising Text Generation&lt;br&gt;" style="text;html=1;align=center;verticalAlign=middle;resizable=0;points=[];autosize=1;strokeColor=none;fillColor=none;" vertex="1" parent="1">
          <mxGeometry x="55" y="58" width="170" height="30" as="geometry" />
        </mxCell>
        <mxCell id="AY7pOuqon0SZaMtRQyjH-6" value="FATE架构" style="swimlane;" vertex="1" parent="1">
          <mxGeometry x="40" y="150" width="200" height="210" as="geometry" />
        </mxCell>
        <mxCell id="AY7pOuqon0SZaMtRQyjH-7" value="guest&lt;br&gt;（initiator）" style="whiteSpace=wrap;html=1;" vertex="1" parent="AY7pOuqon0SZaMtRQyjH-6">
          <mxGeometry x="140" y="30" width="47.5" height="50" as="geometry" />
        </mxCell>
        <mxCell id="AY7pOuqon0SZaMtRQyjH-8" value="host" style="whiteSpace=wrap;html=1;" vertex="1" parent="AY7pOuqon0SZaMtRQyjH-6">
          <mxGeometry x="140" y="150" width="47.5" height="50" as="geometry" />
        </mxCell>
        <mxCell id="AY7pOuqon0SZaMtRQyjH-12" value="arbiter" style="whiteSpace=wrap;html=1;" vertex="1" parent="AY7pOuqon0SZaMtRQyjH-6">
          <mxGeometry x="140" y="90" width="47.5" height="50" as="geometry" />
        </mxCell>
        <mxCell id="AY7pOuqon0SZaMtRQyjH-19" value="data_guest" style="rounded=1;whiteSpace=wrap;html=1;" vertex="1" parent="AY7pOuqon0SZaMtRQyjH-6">
          <mxGeometry x="10" y="30" width="110" height="50" as="geometry" />
        </mxCell>
        <mxCell id="AY7pOuqon0SZaMtRQyjH-20" value="data_host" style="rounded=1;whiteSpace=wrap;html=1;" vertex="1" parent="AY7pOuqon0SZaMtRQyjH-6">
          <mxGeometry x="10" y="150" width="110" height="50" as="geometry" />
        </mxCell>
        <mxCell id="AY7pOuqon0SZaMtRQyjH-21" value="" style="shape=flexArrow;endArrow=classic;html=1;rounded=0;exitX=0;exitY=0.5;exitDx=0;exitDy=0;entryX=1;entryY=0.5;entryDx=0;entryDy=0;" edge="1" parent="AY7pOuqon0SZaMtRQyjH-6" source="AY7pOuqon0SZaMtRQyjH-7" target="AY7pOuqon0SZaMtRQyjH-19">
          <mxGeometry width="50" height="50" relative="1" as="geometry">
            <mxPoint x="160" y="40" as="sourcePoint" />
            <mxPoint x="210" y="-10" as="targetPoint" />
          </mxGeometry>
        </mxCell>
        <mxCell id="AY7pOuqon0SZaMtRQyjH-22" value="read" style="edgeLabel;html=1;align=center;verticalAlign=middle;resizable=0;points=[];" vertex="1" connectable="0" parent="AY7pOuqon0SZaMtRQyjH-21">
          <mxGeometry x="-0.1554" y="-4" relative="1" as="geometry">
            <mxPoint as="offset" />
          </mxGeometry>
        </mxCell>
        <mxCell id="AY7pOuqon0SZaMtRQyjH-23" value="" style="shape=flexArrow;endArrow=classic;html=1;rounded=0;exitX=0;exitY=0.5;exitDx=0;exitDy=0;" edge="1" parent="AY7pOuqon0SZaMtRQyjH-6" source="AY7pOuqon0SZaMtRQyjH-8" target="AY7pOuqon0SZaMtRQyjH-20">
          <mxGeometry width="50" height="50" relative="1" as="geometry">
            <mxPoint x="140" y="174.64" as="sourcePoint" />
            <mxPoint x="120" y="174.64" as="targetPoint" />
          </mxGeometry>
        </mxCell>
        <mxCell id="AY7pOuqon0SZaMtRQyjH-24" value="read" style="edgeLabel;html=1;align=center;verticalAlign=middle;resizable=0;points=[];" vertex="1" connectable="0" parent="AY7pOuqon0SZaMtRQyjH-23">
          <mxGeometry x="-0.1554" y="-4" relative="1" as="geometry">
            <mxPoint as="offset" />
          </mxGeometry>
        </mxCell>
        <mxCell id="AY7pOuqon0SZaMtRQyjH-15" style="edgeStyle=orthogonalEdgeStyle;rounded=0;orthogonalLoop=1;jettySize=auto;html=1;entryX=1;entryY=0.5;entryDx=0;entryDy=0;" edge="1" parent="1" source="AY7pOuqon0SZaMtRQyjH-13" target="AY7pOuqon0SZaMtRQyjH-7">
          <mxGeometry relative="1" as="geometry" />
        </mxCell>
        <mxCell id="AY7pOuqon0SZaMtRQyjH-16" style="edgeStyle=orthogonalEdgeStyle;rounded=0;orthogonalLoop=1;jettySize=auto;html=1;exitX=0;exitY=0.5;exitDx=0;exitDy=0;entryX=1;entryY=0.5;entryDx=0;entryDy=0;" edge="1" parent="1" source="AY7pOuqon0SZaMtRQyjH-13" target="AY7pOuqon0SZaMtRQyjH-12">
          <mxGeometry relative="1" as="geometry" />
        </mxCell>
        <mxCell id="AY7pOuqon0SZaMtRQyjH-13" value="guest_0" style="swimlane;" vertex="1" parent="1">
          <mxGeometry x="290" y="40" width="200" height="110" as="geometry" />
        </mxCell>
        <mxCell id="AY7pOuqon0SZaMtRQyjH-28" value="guest_data_path" style="text;html=1;align=center;verticalAlign=middle;resizable=0;points=[];autosize=1;strokeColor=none;fillColor=none;" vertex="1" parent="AY7pOuqon0SZaMtRQyjH-13">
          <mxGeometry x="45" y="30" width="110" height="30" as="geometry" />
        </mxCell>
        <mxCell id="AY7pOuqon0SZaMtRQyjH-30" value="model copy" style="rounded=0;whiteSpace=wrap;html=1;" vertex="1" parent="AY7pOuqon0SZaMtRQyjH-13">
          <mxGeometry x="52.5" y="60" width="95" height="40" as="geometry" />
        </mxCell>
        <mxCell id="AY7pOuqon0SZaMtRQyjH-18" style="edgeStyle=orthogonalEdgeStyle;rounded=0;orthogonalLoop=1;jettySize=auto;html=1;entryX=1;entryY=0.5;entryDx=0;entryDy=0;exitX=0;exitY=0.5;exitDx=0;exitDy=0;" edge="1" parent="1" source="AY7pOuqon0SZaMtRQyjH-14" target="AY7pOuqon0SZaMtRQyjH-8">
          <mxGeometry relative="1" as="geometry">
            <Array as="points">
              <mxPoint x="500" y="90" />
              <mxPoint x="500" y="325" />
            </Array>
          </mxGeometry>
        </mxCell>
        <mxCell id="AY7pOuqon0SZaMtRQyjH-14" value="host_1" style="swimlane;" vertex="1" parent="1">
          <mxGeometry x="510" y="40" width="200" height="110" as="geometry" />
        </mxCell>
        <mxCell id="AY7pOuqon0SZaMtRQyjH-29" value="host_data_path" style="text;html=1;align=center;verticalAlign=middle;resizable=0;points=[];autosize=1;strokeColor=none;fillColor=none;" vertex="1" parent="AY7pOuqon0SZaMtRQyjH-14">
          <mxGeometry x="45" y="30" width="110" height="30" as="geometry" />
        </mxCell>
        <mxCell id="AY7pOuqon0SZaMtRQyjH-31" value="model copy" style="rounded=0;whiteSpace=wrap;html=1;" vertex="1" parent="AY7pOuqon0SZaMtRQyjH-14">
          <mxGeometry x="52.5" y="60" width="95" height="40" as="geometry" />
        </mxCell>
        <mxCell id="AY7pOuqon0SZaMtRQyjH-32" style="edgeStyle=orthogonalEdgeStyle;rounded=0;orthogonalLoop=1;jettySize=auto;html=1;entryX=0.5;entryY=1;entryDx=0;entryDy=0;" edge="1" parent="1" source="AY7pOuqon0SZaMtRQyjH-25" target="AY7pOuqon0SZaMtRQyjH-31">
          <mxGeometry relative="1" as="geometry" />
        </mxCell>
        <mxCell id="AY7pOuqon0SZaMtRQyjH-33" style="edgeStyle=orthogonalEdgeStyle;rounded=0;orthogonalLoop=1;jettySize=auto;html=1;entryX=0.5;entryY=1;entryDx=0;entryDy=0;" edge="1" parent="1" source="AY7pOuqon0SZaMtRQyjH-25" target="AY7pOuqon0SZaMtRQyjH-30">
          <mxGeometry relative="1" as="geometry">
            <Array as="points">
              <mxPoint x="610" y="170" />
              <mxPoint x="390" y="170" />
            </Array>
          </mxGeometry>
        </mxCell>
        <mxCell id="AY7pOuqon0SZaMtRQyjH-25" value="model" style="swimlane;whiteSpace=wrap;html=1;" vertex="1" parent="1">
          <mxGeometry x="510" y="190" width="200" height="170" as="geometry" />
        </mxCell>
        <mxCell id="AY7pOuqon0SZaMtRQyjH-26" value="pretrained model: ChatGLM-6B&lt;br&gt;&lt;div style=&quot;text-align: left;&quot;&gt;&lt;span style=&quot;background-color: initial;&quot;&gt;finetune model:&amp;nbsp; &amp;nbsp; &amp;nbsp;Lora&lt;/span&gt;&lt;/div&gt;&lt;div style=&quot;text-align: left;&quot;&gt;&lt;span style=&quot;background-color: initial;&quot;&gt;&lt;br&gt;&lt;/span&gt;&lt;/div&gt;&lt;div style=&quot;text-align: left;&quot;&gt;&lt;span style=&quot;background-color: initial;&quot;&gt;dataset_para&lt;/span&gt;&lt;/div&gt;&lt;div style=&quot;text-align: left;&quot;&gt;&lt;span style=&quot;background-color: initial;&quot;&gt;trainer_para&lt;/span&gt;&lt;/div&gt;" style="text;html=1;align=center;verticalAlign=middle;resizable=0;points=[];autosize=1;strokeColor=none;fillColor=none;" vertex="1" parent="AY7pOuqon0SZaMtRQyjH-25">
          <mxGeometry y="30" width="190" height="90" as="geometry" />
        </mxCell>
        <mxCell id="AY7pOuqon0SZaMtRQyjH-34" value="&lt;b&gt;&lt;font style=&quot;font-size: 15px;&quot;&gt;pipeline结构&lt;/font&gt;&lt;/b&gt;" style="text;html=1;strokeColor=none;fillColor=none;align=center;verticalAlign=middle;whiteSpace=wrap;rounded=0;" vertex="1" parent="1">
          <mxGeometry x="290" y="230" width="160" height="30" as="geometry" />
        </mxCell>
      </root>
    </mxGraphModel>
  </diagram>
</mxfile>
